<?xml version="1.0" encoding="utf-8"?>
<!-- Generator: Adobe Illustrator 21.1.0, SVG Export Plug-In . SVG Version: 6.00 Build 0)  -->
<svg version="1.1" id="Layer_1" xmlns="http://www.w3.org/2000/svg" xmlns:xlink="http://www.w3.org/1999/xlink" x="0px" y="0px"
	 viewBox="0 0 24 24" style="enable-background:new 0 0 24 24;" xml:space="preserve">
<style type="text/css">
	.st0{fill:#FFFFFF;}
	.st1{fill:none;}
</style>
<path class="st0" d="M12,7C6.5,7,2,9.2,2,12c0,2.2,2.9,4.1,7,4.8V20l4-4l-4-4v2.7c-3.2-0.6-5-1.9-5-2.7c0-1.1,3-3,8-3s8,1.9,8,3
	c0,0.7-1.5,1.9-4,2.5v2.1c3.5-0.8,6-2.5,6-4.6C22,9.2,17.5,7,12,7z"/>
<path class="st1" d="M0,0h24v24H0V0z"/>
</svg>
